<svg xmlns="http://www.w3.org/2000/svg" width="24" height="24" viewBox="0 0 24 24"><path d="M12 0c-6.626 0-12 5.373-12 12 0 5.302 3.438 9.8 8.207 11.387.599.111.793-.261.793-.577v-2.234c-3.338.726-4.033-1.416-4.033-1.416-.546-1.387-1.333-1.756-1.333-1.756-1.08-.731.084-.716.084-.716 1.192.085 1.816 1.226 1.816 1.226 1.06 1.815 2.78 1.293 3.45.993.108-.775.418-1.293.762-1.593-2.645-.295-5.429-1.321-5.429-5.925 0-1.31.465-2.381 1.236-3.221-.124-.303-.535-1.524.118-3.176 0 0 1.008-.322 3.301 1.23.957-.266 1.983-.399 3.003-.404 1.02.005 2.046.138 3.006.404 2.291-1.552 3.297-1.23 3.297-1.23.653 1.653.242 2.874.118 3.176.774.84 1.235 1.911 1.235 3.221 0 4.61-2.788 5.624-5.437 5.914.43.372.823 1.102.823 2.222v3.293c0 .319.192.694.801.576 4.765-1.589 8.196-6.086 8.196-11.386 0-6.627-5.373-12-12-12z"/></svg>